{
    "asset" : {
        "generator" : "Khronos glTF Blender I/O v0.9.47",
        "version" : "2.0"
    },
    "scene" : 0,
    "scenes" : [
        {
            "nodes" : [
                0
            ],
            "name" : "Scene"
        }
    ],
    "nodes" : [
        {
            "mesh" : 0,
            "name" : "Girl"
        }
    ],
    "materials" : [
        {
            "pbrMetallicRoughness" : {},
            "name" : "Material"
        }
    ],
    "meshes" : [
        {
            "primitives" : [
                {
                    "indices" : 2,
                    "attributes" : {
                        "POSITION" : 0,
                        "NORMAL" : 1
                    },
                    "material" : 0
                }
            ],
            "name" : "Cube.001"
        }
    ],
    "accessors" : [
        {
            "max" : [
                1.9887957572937012,
                0.271227091550827,
                2.0131189823150635
            ],
            "min" : [
                -1.9887957572937012,
                -0.49667924642562866,
                -2.0113437175750732
            ],
            "componentType" : 5126,
            "count" : 678,
            "type" : "VEC3",
            "bufferView" : 0
        },
        {
            "count" : 678,
            "componentType" : 5126,
            "type" : "VEC3",
            "bufferView" : 1
        },
        {
            "count" : 1020,
            "componentType" : 5123,
            "type" : "SCALAR",
            "bufferView" : 2
        }
    ],
    "bufferViews" : [
        {
            "byteLength" : 8136,
            "byteOffset" : 0,
            "buffer" : 0
        },
        {
            "byteLength" : 8136,
            "byteOffset" : 8136,
            "buffer" : 0
        },
        {
            "byteLength" : 2040,
            "byteOffset" : 16272,
            "buffer" : 0
        }
    ],
    "buffers" : [
        {
            "byteLength" : 18312,
            "uri" : "data:application/octet-stream;base64,"
        }
    ]
}
