{
    "asset" : {
        "version" : "2.0",
        "generator" : "Khronos glTF Blender I/O v0.9.52"
    },
    "scene" : 0,
    "scenes" : [
        {
            "nodes" : [
                0
            ],
            "name" : "Scene"
        }
    ],
    "nodes" : [
        {
            "mesh" : 0,
            "name" : "Cylinder"
        }
    ],
    "meshes" : [
        {
            "primitives" : [
                {
                    "attributes" : {
                        "NORMAL" : 0,
                        "WEIGHTS_0" : 1,
                        "POSITION" : 2,
                        "JOINTS_0" : 3
                    },
                    "indices" : 4
                }
            ],
            "name" : "Cylinder"
        }
    ],
    "accessors" : [
        {
            "count" : 348,
            "bufferView" : 0,
            "componentType" : 5126,
            "type" : "VEC3"
        },
        {
            "count" : 348,
            "bufferView" : 1,
            "componentType" : 5126,
            "type" : "VEC4"
        },
        {
            "count" : 348,
            "max" : [
                1,
                2.081277847290039,
                1
            ],
            "min" : [
                -1,
                0.08127772808074951,
                -1
            ],
            "type" : "VEC3",
            "bufferView" : 2,
            "componentType" : 5126
        },
        {
            "count" : 348,
            "bufferView" : 3,
            "componentType" : 5123,
            "type" : "VEC4"
        },
        {
            "count" : 564,
            "bufferView" : 4,
            "componentType" : 5123,
            "type" : "SCALAR"
        }
    ],
    "bufferViews" : [
        {
            "byteOffset" : 0,
            "byteLength" : 4176,
            "buffer" : 0
        },
        {
            "byteOffset" : 4176,
            "byteLength" : 5568,
            "buffer" : 0
        },
        {
            "byteOffset" : 9744,
            "byteLength" : 4176,
            "buffer" : 0
        },
        {
            "byteOffset" : 13920,
            "byteLength" : 2784,
            "buffer" : 0
        },
        {
            "byteOffset" : 16704,
            "byteLength" : 1128,
            "buffer" : 0
        }
    ],
    "buffers" : [
        {
            "byteLength" : 17832,
            "uri" : "data:application/octet-stream;base64,"
        }
    ]
}
