{
    "asset" : {
        "version" : "2.0",
        "generator" : "Khronos glTF Blender I/O v0.9.52"
    },
    "scene" : 0,
    "scenes" : [
        {
            "nodes" : [
                9
            ],
            "name" : "Scene"
        }
    ],
    "nodes" : [
        {
            "name" : "Base"
        },
        {
            "translation" : [
                0,
                2.130791425704956,
                0
            ],
            "rotation" : [
                1,
                0,
                0,
                0
            ],
            "name" : "Hip"
        },
        {
            "translation" : [
                0,
                1.6613022089004517,
                0
            ],
            "rotation" : [
                -0.4335223138332367,
                -0.49556106328964233,
                -0.49556106328964233,
                0.5664777159690857
            ],
            "name" : "HipJoint.l"
        },
        {
            "scale" : [
                1,
                1,
                1.0000001192092896
            ],
            "translation" : [
                0.24704676866531372,
                1.694442629814148,
                4.304432366097899e-09
            ],
            "rotation" : [
                0.9993864297866821,
                -0.015910496935248375,
                -0.015910515561699867,
                0.026840366423130035
            ],
            "name" : "Thigh.l"
        },
        {
            "translation" : [
                0.22294464707374573,
                0.9171492457389832,
                0.042178619652986526
            ],
            "rotation" : [
                0.9996526837348938,
                -0.016584662720561028,
                -0.016584662720561028,
                0.012013876810669899
            ],
            "name" : "Shin.l"
        },
        {
            "translation" : [
                0,
                1.6613022089004517,
                0
            ],
            "rotation" : [
                -0.4335223138332367,
                0.49556106328964233,
                0.49556106328964233,
                0.5664777159690857
            ],
            "name" : "HipJoint.r.001"
        },
        {
            "scale" : [
                1,
                1,
                1.0000001192092896
            ],
            "translation" : [
                -0.24704676866531372,
                1.694442629814148,
                4.304432366097899e-09
            ],
            "rotation" : [
                0.9993864297866821,
                0.015910496935248375,
                0.015910515561699867,
                0.026840366423130035
            ],
            "name" : "Thigh.r"
        },
        {
            "translation" : [
                -0.22294464707374573,
                0.9171492457389832,
                0.042178619652986526
            ],
            "rotation" : [
                0.9996526837348938,
                0.016584662720561028,
                0.016584662720561028,
                0.012013876810669899
            ],
            "name" : "Shin.r"
        },
        {
            "mesh" : 0,
            "skin" : 0,
            "name" : "Cylinder"
        },
        {
            "name" : "Armature",
            "children" : [
                8,
                0,
                1,
                2,
                3,
                4,
                5,
                6,
                7
            ]
        }
    ],
    "meshes" : [
        {
            "primitives" : [
                {
                    "attributes" : {
                        "NORMAL" : 0,
                        "WEIGHTS_0" : 1,
                        "POSITION" : 2,
                        "JOINTS_0" : 3
                    },
                    "indices" : 4
                }
            ],
            "name" : "Cylinder"
        }
    ],
    "skins" : [
        {
            "name" : "Armature",
            "joints" : [
                0,
                1,
                2,
                3,
                4,
                5,
                6,
                7
            ],
            "inverseBindMatrices" : 5
        }
    ],
    "accessors" : [
        {
            "count" : 348,
            "bufferView" : 0,
            "componentType" : 5126,
            "type" : "VEC3"
        },
        {
            "count" : 348,
            "bufferView" : 1,
            "componentType" : 5126,
            "type" : "VEC4"
        },
        {
            "count" : 348,
            "max" : [
                1,
                2.081277847290039,
                1
            ],
            "min" : [
                -1,
                0.08127772808074951,
                -1
            ],
            "type" : "VEC3",
            "bufferView" : 2,
            "componentType" : 5126
        },
        {
            "count" : 348,
            "bufferView" : 3,
            "componentType" : 5123,
            "type" : "VEC4"
        },
        {
            "count" : 564,
            "bufferView" : 4,
            "componentType" : 5123,
            "type" : "SCALAR"
        },
        {
            "count" : 8,
            "bufferView" : 5,
            "componentType" : 5126,
            "type" : "MAT4"
        }
    ],
    "bufferViews" : [
        {
            "byteOffset" : 0,
            "byteLength" : 4176,
            "buffer" : 0
        },
        {
            "byteOffset" : 4176,
            "byteLength" : 5568,
            "buffer" : 0
        },
        {
            "byteOffset" : 9744,
            "byteLength" : 4176,
            "buffer" : 0
        },
        {
            "byteOffset" : 13920,
            "byteLength" : 2784,
            "buffer" : 0
        },
        {
            "byteOffset" : 16704,
            "byteLength" : 1128,
            "buffer" : 0
        },
        {
            "byteOffset" : 17832,
            "byteLength" : 512,
            "buffer" : 0
        }
    ],
    "buffers" : [
        {
            "byteLength" : 18344,
            "uri" : "data:application/octet-stream;base64,"
        }
    ]
}
