{
    "asset" : {
        "version" : "2.0",
        "generator" : "Khronos glTF Blender I/O v0.9.52"
    },
    "scene" : 0,
    "scenes" : [
        {
            "nodes" : [
                8
            ],
            "name" : "Scene"
        }
    ],
    "nodes" : [
        {
            "scale" : [
                1,
                1.0000001192092896,
                1
            ],
            "translation" : [
                1.6065314412117004e-08,
                0.7796333432197571,
                2.3283064365386963e-09
            ],
            "rotation" : [
                0.029254604130983353,
                -0.0007897785981185734,
                -0.00016895117005333304,
                0.9995718002319336
            ],
            "name" : "Shin.l"
        },
        {
            "scale" : [
                0.9999999403953552,
                1.0000001192092896,
                1
            ],
            "name" : "Thigh.l",
            "translation" : [
                8.18552337022993e-10,
                0.4584888815879822,
                -3.0506370762850565e-08
            ],
            "rotation" : [
                -0.10899912565946579,
                -0.29625773429870605,
                0.2829575836658478,
                0.9056961536407471
            ],
            "children" : [
                0
            ]
        },
        {
            "scale" : [
                0.9999996423721313,
                0.9999998211860657,
                0.9999999403953552
            ],
            "name" : "HipJoin.l",
            "translation" : [
                0,
                2.078756093978882,
                0
            ],
            "rotation" : [
                -0.9175482392311096,
                -0.2750515937805176,
                -0.2750519812107086,
                0.08245197683572769
            ],
            "children" : [
                1
            ]
        },
        {
            "scale" : [
                1,
                0.9999998211860657,
                0.9999998211860657
            ],
            "translation" : [
                -2.153683453798294e-08,
                0.7797338366508484,
                -1.0244548320770264e-08
            ],
            "rotation" : [
                0.029188532382249832,
                -0.0010781873716041446,
                0.002043697750195861,
                0.9995712637901306
            ],
            "name" : "Shin.r"
        },
        {
            "scale" : [
                1,
                1,
                0.9999999403953552
            ],
            "name" : "Thigh.r",
            "translation" : [
                -1.6239388500594032e-08,
                0.45682427287101746,
                -6.802120822158031e-08
            ],
            "rotation" : [
                -0.10745275020599365,
                0.2955610156059265,
                -0.2827099561691284,
                0.9061858057975769
            ],
            "children" : [
                3
            ]
        },
        {
            "scale" : [
                0.9999998211860657,
                0.9999998807907104,
                0.9999999403953552
            ],
            "name" : "HipJoint.r",
            "translation" : [
                0,
                2.078756093978882,
                0
            ],
            "rotation" : [
                -0.9190698266029358,
                0.2727281153202057,
                0.2727278470993042,
                0.08093034476041794
            ],
            "children" : [
                4
            ]
        },
        {
            "name" : "Base",
            "children" : [
                2,
                5
            ]
        },
        {
            "mesh" : 0,
            "skin" : 0,
            "name" : "Cylinder"
        },
        {
            "name" : "Armature",
            "children" : [
                7,
                6
            ]
        }
    ],
    "meshes" : [
        {
            "primitives" : [
                {
                    "attributes" : {
                        "NORMAL" : 0,
                        "WEIGHTS_0" : 1,
                        "POSITION" : 2,
                        "JOINTS_0" : 3
                    },
                    "indices" : 4
                }
            ],
            "name" : "Cylinder"
        }
    ],
    "skins" : [
        {
            "name" : "Armature",
            "joints" : [
                6,
                2,
                1,
                0,
                5,
                4,
                3
            ],
            "inverseBindMatrices" : 5
        }
    ],
    "accessors" : [
        {
            "count" : 348,
            "bufferView" : 0,
            "componentType" : 5126,
            "type" : "VEC3"
        },
        {
            "count" : 348,
            "bufferView" : 1,
            "componentType" : 5126,
            "type" : "VEC4"
        },
        {
            "count" : 348,
            "max" : [
                1,
                2.081277847290039,
                1
            ],
            "min" : [
                -1,
                0.08127772808074951,
                -1
            ],
            "type" : "VEC3",
            "bufferView" : 2,
            "componentType" : 5126
        },
        {
            "count" : 348,
            "bufferView" : 3,
            "componentType" : 5123,
            "type" : "VEC4"
        },
        {
            "count" : 564,
            "bufferView" : 4,
            "componentType" : 5123,
            "type" : "SCALAR"
        },
        {
            "count" : 7,
            "bufferView" : 5,
            "componentType" : 5126,
            "type" : "MAT4"
        }
    ],
    "bufferViews" : [
        {
            "byteOffset" : 0,
            "byteLength" : 4176,
            "buffer" : 0
        },
        {
            "byteOffset" : 4176,
            "byteLength" : 5568,
            "buffer" : 0
        },
        {
            "byteOffset" : 9744,
            "byteLength" : 4176,
            "buffer" : 0
        },
        {
            "byteOffset" : 13920,
            "byteLength" : 2784,
            "buffer" : 0
        },
        {
            "byteOffset" : 16704,
            "byteLength" : 1128,
            "buffer" : 0
        },
        {
            "byteOffset" : 17832,
            "byteLength" : 448,
            "buffer" : 0
        }
    ],
    "buffers" : [
        {
            "byteLength" : 18280,
            "uri" : "data:application/octet-stream;base64,"
        }
    ]
}
