{
    "asset" : {
        "generator" : "Khronos glTF Blender I/O v0.9.52",
        "version" : "2.0"
    },
    "scene" : 0,
    "scenes" : [
        {
            "nodes" : [
                9
            ],
            "name" : "Scene"
        }
    ],
    "nodes" : [
        {
            "name" : "Base"
        },
        {
            "translation" : [
                0,
                2.130791425704956,
                0
            ],
            "name" : "Hip",
            "rotation" : [
                1,
                0,
                0,
                0
            ]
        },
        {
            "translation" : [
                0,
                1.6613022089004517,
                0
            ],
            "name" : "HipJoint.l",
            "rotation" : [
                -0.4335223138332367,
                -0.49556106328964233,
                -0.49556106328964233,
                0.5664777159690857
            ]
        },
        {
            "translation" : [
                0.24704676866531372,
                1.694442629814148,
                4.304432366097899e-09
            ],
            "scale" : [
                1,
                1,
                1.0000001192092896
            ],
            "name" : "Thigh.l",
            "rotation" : [
                0.9993864297866821,
                -0.015910496935248375,
                -0.015910515561699867,
                0.026840366423130035
            ]
        },
        {
            "translation" : [
                0.22294464707374573,
                0.9171492457389832,
                0.042178619652986526
            ],
            "name" : "Shin.l",
            "rotation" : [
                0.9996526837348938,
                -0.016584662720561028,
                -0.016584662720561028,
                0.012013876810669899
            ]
        },
        {
            "translation" : [
                0,
                1.6613022089004517,
                0
            ],
            "name" : "HipJoint.r.001",
            "rotation" : [
                -0.4335223138332367,
                0.49556106328964233,
                0.49556106328964233,
                0.5664777159690857
            ]
        },
        {
            "translation" : [
                -0.24704676866531372,
                1.694442629814148,
                4.304432366097899e-09
            ],
            "scale" : [
                1,
                1,
                1.0000001192092896
            ],
            "name" : "Thigh.r",
            "rotation" : [
                0.9993864297866821,
                0.015910496935248375,
                0.015910515561699867,
                0.026840366423130035
            ]
        },
        {
            "translation" : [
                -0.22294464707374573,
                0.9171492457389832,
                0.042178619652986526
            ],
            "name" : "Shin.r",
            "rotation" : [
                0.9996526837348938,
                0.016584662720561028,
                0.016584662720561028,
                0.012013876810669899
            ]
        },
        {
            "skin" : 0,
            "name" : "Skirt",
            "mesh" : 0
        },
        {
            "children" : [
                8,
                0,
                1,
                2,
                3,
                4,
                5,
                6,
                7
            ],
            "name" : "Armature"
        }
    ],
    "meshes" : [
        {
            "primitives" : [
                {
                    "indices" : 4,
                    "attributes" : {
                        "NORMAL" : 0,
                        "WEIGHTS_0" : 1,
                        "POSITION" : 2,
                        "JOINTS_0" : 3
                    }
                }
            ],
            "name" : "Cylinder"
        }
    ],
    "skins" : [
        {
            "joints" : [
                0,
                1,
                2,
                3,
                4,
                5,
                6,
                7
            ],
            "inverseBindMatrices" : 5,
            "name" : "Armature"
        }
    ],
    "accessors" : [
        {
            "count" : 124,
            "bufferView" : 0,
            "componentType" : 5126,
            "type" : "VEC3"
        },
        {
            "count" : 124,
            "bufferView" : 1,
            "componentType" : 5126,
            "type" : "VEC4"
        },
        {
            "max" : [
                0.9749279022216797,
                2.005368232727051,
                0.9009689092636108
            ],
            "count" : 124,
            "componentType" : 5126,
            "type" : "VEC3",
            "min" : [
                -0.9749279022216797,
                0.0053681135177612305,
                -1
            ],
            "bufferView" : 2
        },
        {
            "count" : 124,
            "bufferView" : 3,
            "componentType" : 5123,
            "type" : "VEC4"
        },
        {
            "count" : 198,
            "bufferView" : 4,
            "componentType" : 5123,
            "type" : "SCALAR"
        },
        {
            "count" : 8,
            "bufferView" : 5,
            "componentType" : 5126,
            "type" : "MAT4"
        }
    ],
    "bufferViews" : [
        {
            "buffer" : 0,
            "byteOffset" : 0,
            "byteLength" : 1488
        },
        {
            "buffer" : 0,
            "byteOffset" : 1488,
            "byteLength" : 1984
        },
        {
            "buffer" : 0,
            "byteOffset" : 3472,
            "byteLength" : 1488
        },
        {
            "buffer" : 0,
            "byteOffset" : 4960,
            "byteLength" : 992
        },
        {
            "buffer" : 0,
            "byteOffset" : 5952,
            "byteLength" : 396
        },
        {
            "buffer" : 0,
            "byteOffset" : 6348,
            "byteLength" : 512
        }
    ],
    "buffers" : [
        {
            "uri" : "data:application/octet-stream;base64,",
            "byteLength" : 6860
        }
    ]
}
