{
    "asset" : {
        "version" : "2.0",
        "generator" : "Khronos glTF Blender I/O v0.9.52"
    },
    "scene" : 0,
    "scenes" : [
        {
            "nodes" : [
                11
            ],
            "name" : "Scene"
        }
    ],
    "nodes" : [
        {
            "scale" : [
                1,
                0.9999999403953552,
                0.9999998807907104
            ],
            "translation" : [
                -1.5133991837501526e-08,
                0.7357317209243774,
                2.7939677238464355e-09
            ],
            "rotation" : [
                -0.5591346621513367,
                0.0230760145932436,
                -0.0041956473141908646,
                0.8287451863288879
            ],
            "name" : "Foot.l"
        },
        {
            "scale" : [
                0.9999999403953552,
                0.9999998211860657,
                0.9999997615814209
            ],
            "name" : "Shin.l",
            "translation" : [
                1.1059455573558807e-08,
                0.7788099646568298,
                4.6566128730773926e-09
            ],
            "rotation" : [
                0.014826448634266853,
                -0.0009236608748324215,
                0.0004154846246819943,
                0.9998896718025208
            ],
            "children" : [
                0
            ]
        },
        {
            "scale" : [
                1,
                1,
                1.0000001192092896
            ],
            "name" : "Thigh.l",
            "translation" : [
                -1.4223373590027677e-09,
                0.24925971031188965,
                -8.878569701664674e-08
            ],
            "rotation" : [
                -0.5777668952941895,
                -0.5064435601234436,
                0.4978655278682709,
                0.4022814929485321
            ],
            "children" : [
                1
            ]
        },
        {
            "scale" : [
                1,
                1.0000001192092896,
                1
            ],
            "name" : "HipJoint.l",
            "translation" : [
                0,
                0.4694892168045044,
                0
            ],
            "rotation" : [
                0.5664777159690857,
                0.4955610930919647,
                -0.49556106328964233,
                0.43352213501930237
            ],
            "children" : [
                2
            ]
        },
        {
            "scale" : [
                1,
                1,
                0.9999998807907104
            ],
            "translation" : [
                2.7939677238464355e-09,
                0.7357317805290222,
                8.381903171539307e-09
            ],
            "rotation" : [
                -0.5591346621513367,
                -0.0230760145932436,
                0.004195652902126312,
                0.8287451863288879
            ],
            "name" : "Foot.r"
        },
        {
            "scale" : [
                0.9999999403953552,
                0.9999998211860657,
                0.9999997615814209
            ],
            "name" : "Shin.r",
            "translation" : [
                -3.259629011154175e-09,
                0.7788098454475403,
                2.7939677238464355e-09
            ],
            "rotation" : [
                0.014826444908976555,
                0.0009236517362296581,
                -0.00041548145236447453,
                0.9998896718025208
            ],
            "children" : [
                4
            ]
        },
        {
            "scale" : [
                1.0000001192092896,
                1,
                0.9999999403953552
            ],
            "name" : "Thigh.r",
            "translation" : [
                1.847057440329536e-08,
                0.24925972521305084,
                -8.869892553775571e-08
            ],
            "rotation" : [
                -0.5777668356895447,
                0.5064435005187988,
                -0.49786555767059326,
                0.4022815525531769
            ],
            "children" : [
                5
            ]
        },
        {
            "scale" : [
                1.0000001192092896,
                1.0000001192092896,
                1
            ],
            "name" : "HipJoint.r.001",
            "translation" : [
                0,
                0.4694892168045044,
                0
            ],
            "rotation" : [
                0.5664777159690857,
                -0.49556103348731995,
                0.49556100368499756,
                0.43352222442626953
            ],
            "children" : [
                6
            ]
        },
        {
            "name" : "Hip",
            "translation" : [
                0,
                0.286979079246521,
                0
            ],
            "rotation" : [
                1,
                0,
                -4.371138828673793e-08,
                0
            ],
            "children" : [
                3,
                7
            ]
        },
        {
            "name" : "Base",
            "translation" : [
                0,
                1.843812346458435,
                0
            ],
            "children" : [
                8
            ]
        },
        {
            "mesh" : 0,
            "skin" : 0,
            "name" : "Cylinder"
        },
        {
            "name" : "Armature",
            "children" : [
                10,
                9
            ]
        }
    ],
    "meshes" : [
        {
            "primitives" : [
                {
                    "attributes" : {
                        "NORMAL" : 0,
                        "WEIGHTS_0" : 1,
                        "POSITION" : 2,
                        "JOINTS_0" : 3
                    },
                    "indices" : 4
                }
            ],
            "name" : "Cylinder"
        }
    ],
    "skins" : [
        {
            "name" : "Armature",
            "joints" : [
                9,
                8,
                3,
                2,
                1,
                0,
                7,
                6,
                5,
                4
            ],
            "inverseBindMatrices" : 5
        }
    ],
    "accessors" : [
        {
            "count" : 348,
            "bufferView" : 0,
            "componentType" : 5126,
            "type" : "VEC3"
        },
        {
            "count" : 348,
            "bufferView" : 1,
            "componentType" : 5126,
            "type" : "VEC4"
        },
        {
            "count" : 348,
            "max" : [
                1,
                2.081277847290039,
                1
            ],
            "min" : [
                -1,
                0.08127772808074951,
                -1
            ],
            "type" : "VEC3",
            "bufferView" : 2,
            "componentType" : 5126
        },
        {
            "count" : 348,
            "bufferView" : 3,
            "componentType" : 5123,
            "type" : "VEC4"
        },
        {
            "count" : 564,
            "bufferView" : 4,
            "componentType" : 5123,
            "type" : "SCALAR"
        },
        {
            "count" : 10,
            "bufferView" : 5,
            "componentType" : 5126,
            "type" : "MAT4"
        }
    ],
    "bufferViews" : [
        {
            "byteOffset" : 0,
            "byteLength" : 4176,
            "buffer" : 0
        },
        {
            "byteOffset" : 4176,
            "byteLength" : 5568,
            "buffer" : 0
        },
        {
            "byteOffset" : 9744,
            "byteLength" : 4176,
            "buffer" : 0
        },
        {
            "byteOffset" : 13920,
            "byteLength" : 2784,
            "buffer" : 0
        },
        {
            "byteOffset" : 16704,
            "byteLength" : 1128,
            "buffer" : 0
        },
        {
            "byteOffset" : 17832,
            "byteLength" : 640,
            "buffer" : 0
        }
    ],
    "buffers" : [
        {
            "byteLength" : 18472,
            "uri" : "data:application/octet-stream;base64,"
        }
    ]
}
